<svg width="532" height="90" viewBox="0 0 532 90" fill="none" xmlns="http://www.w3.org/2000/svg">
<path d="M314.314 89.1982H314.31L314.312 89.1924L314.314 89.1982ZM304.832 37.9287L318.793 69.9219H319.941L328.068 48.4541L323.378 37.8232L315.353 32.7188H346.091L337.027 37.9287L350.469 69.9219H351.618L363.287 37.7217L353.91 32.7188H374.336L365.685 37.9287L346.096 89.1982L329.213 51.1641L314.312 89.1924L291.178 37.8232L283.57 32.7188H312.646L304.832 37.9287ZM212.717 33.7666H230.326V38.1445H212.717V72.4307C212.717 77.3279 216.471 80.6631 222.199 80.6631C226.577 80.663 231.474 78.1635 234.185 74.4102C230.119 81.8113 222.41 87.1221 214.908 87.1221C205.738 87.122 199.798 81.9127 200.11 73.1611L200.102 73.1514L201.562 40.8457L191.768 37.3037L200.105 30.5322V23.8662L212.717 17.8018V33.7666ZM466.254 33.7666H483.863V38.1445H466.254V72.4307C466.254 77.3279 470.008 80.6631 475.736 80.6631C479.976 80.663 484.703 78.3189 487.459 74.7617C485.276 70.7565 484.064 65.9153 484.064 60.4443V60.4395C484.065 43.3496 494.796 31.2627 509.594 31.2627C521.993 31.2627 530.438 39.3899 530.438 51.376V52.2119H496.675C496.675 53.3556 496.569 54.3984 496.569 55.5469C496.569 68.8834 503.76 78.3711 514.804 78.3711C523.243 78.371 529.082 73.3677 531.999 63.7803C529.812 78.3709 521.161 87.1221 509.281 87.1221C499.552 87.1221 491.716 82.5264 487.489 74.8174C483.368 82.0046 475.809 87.1221 468.445 87.1221C459.276 87.1221 453.335 81.9127 453.647 73.1611L453.639 73.1514L455.1 40.8457L445.305 37.3037L453.643 30.5322V23.8662L466.254 17.8018V33.7666ZM144.034 31.2627C153.934 31.2627 160.605 37.8274 160.605 47.415V77.6357L167.482 79.6152L148.307 87.1172V75.0303C142.16 81.7008 134.971 87.117 127.464 87.1172C119.957 87.1172 115.165 82.5324 115.165 76.0732L115.17 76.0684C115.17 65.8559 134.134 58.9788 148.307 52.832V47.8291C148.307 40.327 143.616 35.0118 137.157 35.0117C134.759 35.0117 132.779 35.5305 130.698 36.8857C124.758 40.7401 128.511 54.7061 120.173 54.7061C117.049 54.706 114.857 52.308 114.857 48.9775C114.857 39.9136 136.219 31.2629 144.034 31.2627ZM397.573 31.2627C407.473 31.2627 414.144 37.8274 414.145 47.415V77.6357L421.021 79.6152L401.846 87.1172V75.0303C395.699 81.7008 388.51 87.117 381.003 87.1172C373.496 87.1172 368.704 82.5324 368.704 76.0732L368.709 76.0684C368.709 65.8559 387.673 58.9788 401.846 52.832V47.8291C401.846 40.3271 397.155 35.0118 390.696 35.0117C388.298 35.0117 386.318 35.5306 384.237 36.8857C378.297 40.7401 382.05 54.706 373.712 54.7061C370.588 54.7061 368.397 52.308 368.396 48.9775C368.396 39.9136 389.759 31.2628 397.573 31.2627ZM0 85.8682V85.8633H0.00585938L0 85.8682ZM186.446 81.2832L193.117 85.8682H167.588L174.048 81.2832V42.2061L166.752 39.9131L186.446 30.4365V81.2832ZM439.983 81.2832L446.654 85.8682H421.125L427.585 81.2832V42.2061L420.289 39.9131L439.983 30.4365V81.2832ZM37.2031 8.75195C53.9804 8.75202 66.485 16.6718 66.4854 27.0908C66.4854 36.0539 58.253 42.7201 44.7051 44.7002V45.8486C59.5026 48.0354 69.1911 55.3312 69.2969 65.2314C69.4025 77.6307 55.7491 85.8632 36.4727 85.8633H0.00585938L8.02637 79.6152V15.0039L0 8.75195H37.2031ZM106.602 31.2627C111.811 31.2628 115.353 34.3865 115.354 38.7646C115.354 42.619 112.954 45.2236 109.619 45.2236C103.473 45.2233 102.949 37.9287 98.8877 37.9287C95.8649 37.9288 92.948 41.1581 90.8623 44.0752V81.2783L98.5752 85.8633H71.8975L78.4629 81.2783L78.4678 81.2832V42.8311L71.1719 39.9131L90.8662 31.2627V41.4756C94.7206 36.2659 100.455 31.2627 106.602 31.2627ZM249.703 40.6396C256.162 36.4729 264.501 31.2627 269.504 31.2627C278.049 31.2629 284.195 37.5154 284.195 46.8916V81.2783L290.654 85.8633H264.812L271.796 81.2783V47.5166C271.796 41.6822 267.836 37.1982 262.938 37.1982C258.978 37.1983 254.081 39.5966 249.703 42.0957V81.2783L256.787 85.8633H230.84L237.299 81.2783L237.304 81.2832V11.6738L229.965 9.50098L249.703 0V40.6396ZM21.0498 83.6768H35.8477C49.0832 83.6767 55.542 74.4008 55.542 65.0244C55.5419 55.6481 49.0829 46.4736 35.9531 46.4736H21.0498V83.6768ZM148.307 54.6006C136.845 59.392 127.363 64.3948 127.362 72.209C127.362 77.1063 130.804 80.4424 135.701 80.4424C140.286 80.4423 144.452 77.0011 148.312 72.6279H148.307V54.6006ZM401.846 54.6006C390.384 59.392 380.902 64.3948 380.901 72.209C380.901 77.1063 384.343 80.4424 389.24 80.4424C393.825 80.4422 397.992 77.0011 401.851 72.6279H401.846V54.6006ZM509.594 32.9307C503.135 32.9307 498.131 39.9133 496.882 50.5391H515.222C517.826 50.539 518.764 48.8714 518.764 46.2666C518.764 39.1828 514.909 32.9307 509.594 32.9307ZM21.0547 44.3926H36.5781C46.2717 44.3926 53.043 37.3084 53.043 27.0957C53.0428 17.508 46.3722 10.9434 36.3711 10.9434H21.0547V44.3926ZM179.781 5.83887C184.577 5.83905 188.014 9.59272 188.014 14.2783C188.014 18.964 184.366 22.7176 179.781 22.7178C175.196 22.7178 171.442 19.0699 171.442 14.2783C171.442 9.5878 174.985 5.83887 179.781 5.83887ZM433.318 5.83887C438.114 5.83905 441.551 9.59272 441.551 14.2783C441.551 18.964 437.903 22.7176 433.318 22.7178C428.733 22.7178 424.979 19.0699 424.979 14.2783C424.98 9.5878 428.522 5.83887 433.318 5.83887Z" fill="#17184F"/>
</svg>
