<svg xmlns="http://www.w3.org/2000/svg" width="1214" height="204" viewBox="0 0 1214 204" fill="none">
  <g opacity="0.15">
    <path d="M717.25 203.546H717.239L717.243 203.533L717.25 203.546Z" fill="#868E9B"/>
    <path d="M695.612 86.5514L727.47 159.558H730.091L748.636 110.57L737.932 86.3108L719.619 74.6626H789.762L769.08 86.5514L799.752 159.558H802.375L829.003 86.079L807.606 74.6626H854.216L834.474 86.5514L789.773 203.546L751.248 116.754L717.243 203.533L664.453 86.3108L647.093 74.6626H713.444L695.612 86.5514Z" fill="#868E9B"/>
    <path d="M485.405 77.0537H525.589V87.0439H485.405V165.283C485.405 176.458 493.971 184.069 507.043 184.069C517.034 184.069 528.208 178.365 534.393 169.8C525.115 186.689 507.525 198.808 490.405 198.808C469.481 198.808 455.925 186.921 456.638 166.95L456.617 166.928L459.951 93.2079L437.6 85.1252L456.626 69.673V54.4615L485.405 40.6227V77.0537Z" fill="#868E9B"/>
    <path fill-rule="evenodd" clip-rule="evenodd" d="M1063.97 77.0537H1104.15V87.0439H1063.97V165.283C1063.97 176.458 1072.53 184.069 1085.61 184.069C1095.28 184.069 1106.07 178.718 1112.36 170.598C1107.38 161.459 1104.62 150.414 1104.62 137.931V137.92C1104.62 98.9216 1129.11 71.3399 1162.87 71.3399C1191.17 71.34 1210.44 89.8859 1210.44 117.237V119.145H1133.39C1133.39 121.755 1133.15 124.134 1133.15 126.755C1133.15 157.189 1149.56 178.839 1174.76 178.839C1194.02 178.839 1207.34 167.422 1214 145.543C1209.01 178.838 1189.27 198.808 1162.16 198.808C1139.96 198.808 1122.07 188.319 1112.43 170.725C1103.02 187.128 1085.77 198.808 1068.97 198.808C1048.04 198.808 1034.49 186.921 1035.2 166.95L1035.18 166.928L1038.51 93.2079L1016.16 85.1252L1035.19 69.673V54.4615L1063.97 40.6227V77.0537ZM1162.87 75.1462C1148.13 75.1462 1136.72 91.0801 1133.86 115.328H1175.71C1181.66 115.327 1183.8 111.522 1183.8 105.578C1183.8 89.4131 1175 75.1463 1162.87 75.1462Z" fill="#868E9B"/>
    <path fill-rule="evenodd" clip-rule="evenodd" d="M328.683 71.3399C351.275 71.3399 366.498 86.3203 366.498 108.199V177.161L382.191 181.678L338.433 198.797V171.215C324.406 186.437 308.001 198.797 290.871 198.797C273.74 198.797 262.805 188.335 262.805 173.595L262.817 173.584C262.817 150.28 306.092 134.587 338.433 120.56V109.144C338.433 92.0244 327.73 79.8952 312.99 79.895C307.518 79.895 303 81.079 298.251 84.1714C284.696 92.9669 293.261 124.836 274.233 124.837C267.105 124.837 262.104 119.364 262.103 111.764C262.103 91.0808 310.851 71.3403 328.683 71.3399ZM338.433 124.596C312.277 135.53 290.64 146.946 290.639 164.777C290.639 175.953 298.493 183.566 309.668 183.566C320.13 183.565 329.638 175.713 338.444 165.733H338.433V124.596Z" fill="#868E9B"/>
    <path fill-rule="evenodd" clip-rule="evenodd" d="M907.238 71.3399C929.83 71.3399 945.052 86.3203 945.053 108.199V177.161L960.746 181.678L916.988 198.797V171.215C902.961 186.437 886.555 198.797 869.425 198.797C852.295 198.797 841.36 188.335 841.36 173.595L841.371 173.584C841.372 150.28 884.646 134.587 916.988 120.56V109.144C916.988 92.0244 906.285 79.8952 891.545 79.895C886.073 79.895 881.555 81.079 876.806 84.1714C863.251 92.9669 871.815 124.836 852.788 124.837C845.659 124.837 840.658 119.364 840.658 111.764C840.658 91.0808 889.405 71.3403 907.238 71.3399ZM916.988 124.596C890.832 135.53 869.195 146.946 869.194 164.777C869.194 175.953 877.047 183.566 888.223 183.566C898.685 183.565 908.193 175.713 916.999 165.733H916.988V124.596Z" fill="#868E9B"/>
    <path d="M0 195.947V195.936H0.0133708L0 195.947Z" fill="#868E9B"/>
    <path d="M425.466 185.484L440.688 195.947H382.432L397.173 185.484V96.3121L380.524 91.0819L425.466 69.4546V185.484Z" fill="#868E9B"/>
    <path d="M1004.02 185.484L1019.24 195.947H960.986L975.728 185.484V96.3121L959.079 91.0819L1004.02 69.4546V185.484Z" fill="#868E9B"/>
    <path fill-rule="evenodd" clip-rule="evenodd" d="M84.8957 19.9715C123.181 19.9717 151.716 38.0441 151.716 61.8199C151.716 82.2732 132.931 97.4852 102.015 102.004V104.624C135.782 109.614 157.891 126.263 158.132 148.855C158.373 177.149 127.217 195.936 83.2288 195.936H0.0133708L18.3158 181.678V34.2382L0 19.9715H84.8957ZM48.0346 190.946H81.8026C112.006 190.946 126.744 169.779 126.744 148.383C126.744 126.986 112.005 106.051 82.0433 106.051H48.0346V190.946ZM48.0458 101.302H83.4695C105.59 101.302 121.041 85.1358 121.041 61.8311C121.041 39.9524 105.819 24.9722 82.997 24.9722H48.0458V101.302Z" fill="#868E9B"/>
    <path d="M243.26 71.3399C255.147 71.3401 263.231 78.4684 263.231 88.459C263.231 97.2545 257.757 103.198 250.145 103.198C236.12 103.197 234.924 86.5514 225.657 86.5514C218.759 86.5517 212.103 93.9208 207.343 100.577V185.473L224.944 195.936H164.066L179.048 185.473L179.06 185.484V97.7384L162.411 91.0797L207.352 71.3399V94.6452C216.148 82.7571 229.233 71.3399 243.26 71.3399Z" fill="#868E9B"/>
    <path d="M569.81 92.7377C584.55 83.2293 603.578 71.3399 614.995 71.3399C634.493 71.3403 648.52 85.6083 648.52 107.004V185.473L663.259 195.936H604.289L620.225 185.473V108.431C620.225 95.1167 611.188 84.8846 600.013 84.8846C590.976 84.8847 579.801 90.3576 569.81 96.0603V185.473L585.976 195.936H526.765L541.504 185.473L541.515 185.484V26.6391L524.768 21.6808L569.81 0V92.7377Z" fill="#868E9B"/>
    <path d="M410.256 13.3262C421.201 13.3267 429.042 21.8902 429.042 32.5824C429.042 43.2749 420.718 51.8404 410.256 51.8408C399.794 51.8408 391.228 43.5165 391.228 32.5824C391.228 21.879 399.312 13.3262 410.256 13.3262Z" fill="#868E9B"/>
    <path d="M988.811 13.3262C999.756 13.3267 1007.6 21.8902 1007.6 32.5824C1007.6 43.2749 999.273 51.8404 988.811 51.8408C978.349 51.8408 969.782 43.5165 969.782 32.5824C969.783 21.879 977.866 13.3262 988.811 13.3262Z" fill="#868E9B"/>
  </g>
</svg>
