<svg width="1064" height="179" viewBox="0 0 1064 179" fill="none" xmlns="http://www.w3.org/2000/svg">
<path d="M628.629 178.397H628.619L628.623 178.386L628.629 178.397ZM609.665 75.8574L637.587 139.844H639.885L656.139 96.9072L646.757 75.6455L630.705 65.4375H692.183L674.055 75.8574L700.939 139.844H703.236L726.574 75.4443L707.821 65.4375H748.672L731.371 75.8574L692.192 178.397L658.426 102.328L628.623 178.386L582.357 75.6455L567.142 65.4375H625.294L609.665 75.8574ZM425.433 67.5332H460.65V76.29H425.433V144.861C425.433 154.656 432.939 161.326 444.396 161.326C453.153 161.326 462.948 156.328 468.369 148.821C460.237 163.624 444.82 174.245 429.815 174.245C411.476 174.245 399.596 163.825 400.221 146.322L400.201 146.303L403.123 81.6914L383.534 74.6074L400.211 61.0645V47.7324L425.433 35.6025V67.5332ZM932.509 67.5332H967.727V76.29H932.509V144.861C932.509 154.656 940.016 161.326 951.473 161.326C959.953 161.326 969.407 156.638 974.919 149.523C970.553 141.513 968.131 131.83 968.131 120.889V120.879C968.131 86.6991 989.594 62.5254 1019.19 62.5254C1043.99 62.5254 1060.88 78.779 1060.88 102.751V104.424H993.353C993.353 106.711 993.141 108.798 993.141 111.095C993.141 137.767 1007.52 156.741 1029.61 156.741C1046.49 156.741 1058.17 146.735 1064 127.56C1059.63 156.741 1042.33 174.244 1018.56 174.244C999.109 174.244 983.437 165.056 974.982 149.642C966.739 164.014 951.617 174.245 936.892 174.245C918.552 174.245 906.672 163.825 907.297 146.322L907.277 146.303L910.199 81.6914L890.61 74.6074L907.287 61.0645V47.7324L932.509 35.6025V67.5332ZM288.068 62.5254C307.869 62.5254 321.211 75.6553 321.211 94.8311V155.271L334.965 159.23L296.613 174.235V150.061C284.32 163.402 269.941 174.235 254.927 174.235C239.913 174.235 230.33 165.065 230.33 152.146L230.34 152.137C230.34 131.712 268.268 117.958 296.613 105.664V95.6572C296.613 80.6534 287.233 70.0226 274.314 70.0225C269.518 70.0225 265.557 71.0609 261.396 73.7715C249.516 81.4804 257.022 109.412 240.346 109.412C234.098 109.412 229.715 104.616 229.715 97.9551C229.715 79.8272 272.439 62.5257 288.068 62.5254ZM795.145 62.5254C814.945 62.5254 828.287 75.6553 828.287 94.8311V155.271L842.041 159.23L803.69 174.235V150.061C791.397 163.402 777.017 174.235 762.003 174.235C746.989 174.235 737.406 165.065 737.406 152.146L737.416 152.137C737.417 131.712 775.345 117.958 803.69 105.664V95.6572C803.69 80.6534 794.309 70.0226 781.391 70.0225C776.594 70.0225 772.634 71.0609 768.472 73.7715C756.592 81.4804 764.098 109.412 747.422 109.412C741.174 109.412 736.791 104.616 736.791 97.9551C736.791 79.8272 779.515 62.5257 795.145 62.5254ZM0 171.736V171.727H0.0126953L0 171.736ZM372.895 162.566L386.235 171.736H335.178L348.096 162.566V84.4121L333.505 79.8271L372.895 60.8721V162.566ZM879.971 162.566L893.312 171.736H842.254L855.172 162.566V84.4121L840.581 79.8271L879.971 60.8721V162.566ZM74.4062 17.5029C107.961 17.5031 132.971 33.3441 132.971 54.1826C132.971 72.1087 116.506 85.4403 89.4102 89.4004V91.6973C119.005 96.0707 138.382 110.662 138.594 130.463C138.805 155.261 111.498 171.727 72.9443 171.727H0.0126953L16.0518 159.231V30.0088L0 17.5029H74.4062ZM213.202 62.5254C223.621 62.5255 230.705 68.7731 230.705 77.5293C230.705 85.238 225.909 90.4481 219.238 90.4482C206.945 90.4482 205.896 75.8574 197.774 75.8574C191.729 75.8576 185.894 82.3161 181.723 88.1504V162.557L197.149 171.727H143.794L156.924 162.557L156.934 162.566V85.6611L142.343 79.8271L181.732 62.5254V82.9502C189.441 72.531 200.909 62.5254 213.202 62.5254ZM499.406 81.2783C512.325 72.9448 529.001 62.5254 539.007 62.5254C556.097 62.5254 568.391 75.0305 568.391 93.7832V162.557L581.309 171.727H529.626L543.592 162.557V95.0332C543.592 83.3643 535.672 74.3965 525.877 74.3965C517.957 74.3965 508.163 79.1923 499.406 84.1904V162.557L513.574 171.727H461.679L474.598 162.557L474.607 162.566V23.3477L459.93 19.0029L499.406 0V81.2783ZM42.1006 167.354H71.6953C98.1665 167.353 111.085 148.802 111.085 130.049C111.085 111.296 98.1658 92.9473 71.9062 92.9473H42.1006V167.354ZM296.613 109.201C273.689 118.784 254.725 128.79 254.725 144.419C254.725 154.213 261.607 160.884 271.401 160.884C280.571 160.884 288.905 154.002 296.623 145.255H296.613V109.201ZM803.69 109.201C780.766 118.784 761.801 128.79 761.801 144.419C761.801 154.213 768.683 160.884 778.478 160.884C787.647 160.884 795.981 154.002 803.699 145.255H803.69V109.201ZM1019.19 65.8604C1006.27 65.8604 996.265 79.8272 993.766 101.079H1030.45C1035.65 101.079 1037.53 97.7435 1037.53 92.5342C1037.53 78.3663 1029.82 65.8605 1019.19 65.8604ZM42.1094 88.7852H73.1562C92.5434 88.7852 106.087 74.6175 106.087 54.1924C106.087 35.0167 92.7454 21.8868 72.7432 21.8867H42.1094V88.7852ZM359.562 11.6787C369.155 11.6787 376.028 19.186 376.028 28.5576C376.028 37.929 368.732 45.4355 359.562 45.4355C350.393 45.4354 342.886 38.1404 342.886 28.5576C342.886 19.1765 349.97 11.6788 359.562 11.6787ZM866.639 11.6787C876.231 11.6787 883.104 19.186 883.104 28.5576C883.104 37.929 875.808 45.4355 866.639 45.4355C857.469 45.4354 849.962 38.1404 849.962 28.5576C849.962 19.1765 857.046 11.6788 866.639 11.6787Z" fill="#1D3468"/>
</svg>
