<svg width="32" height="32" viewBox="0 0 32 32" fill="none" xmlns="http://www.w3.org/2000/svg">
<rect width="32" height="32" fill="#EEE8CE"/>
<circle cx="16" cy="16" r="13.9999" stroke="#1D3468" stroke-width="1.33333"/>
<path d="M16.4146 9.59961C19.1987 9.59974 21.2738 10.9136 21.2739 12.6426C21.2739 14.13 19.9078 15.2367 17.6597 15.5654V15.7559C20.1152 16.1189 21.7232 17.3297 21.7407 18.9727C21.7581 21.0304 19.4915 22.3965 16.2925 22.3965H10.2397L11.5718 21.3594V10.6367L10.2397 9.59961H16.4146ZM13.7339 22.0332H16.189C18.3855 22.0332 19.4575 20.4936 19.4575 18.9375C19.4575 17.3814 18.3856 15.8584 16.2065 15.8584H13.7339V22.0332ZM13.7339 15.5137H16.3101C17.9188 15.5137 19.0435 14.3375 19.0435 12.6426C19.0434 11.0515 17.9356 9.96191 16.2759 9.96191H13.7339V15.5137Z" fill="#1D3468"/>
</svg>
